<svg width="20" height="24" viewBox="0 0 20 24" fill="none" xmlns="http://www.w3.org/2000/svg">
<path d="M16.875 2.73389V4C16.8741 4.88375 16.5445 5.73101 15.9587 6.35591C15.3728 6.98081 14.5785 7.33232 13.75 7.33333H6.25C5.42149 7.33232 4.62718 6.98081 4.04134 6.35591C3.45549 5.73101 3.12595 4.88375 3.125 4V2.73389C2.25235 2.88966 1.45966 3.37015 0.887584 4.0901C0.315508 4.81005 0.00104528 5.7229 0 6.66667V20C0 21.0609 0.395088 22.0783 1.09835 22.8284C1.80161 23.5786 2.75544 24 3.75 24H16.25C17.2446 24 18.1984 23.5786 18.9017 22.8284C19.6049 22.0783 20 21.0609 20 20V6.66667C19.999 5.7229 19.6845 4.81005 19.1124 4.0901C18.5403 3.37015 17.7476 2.88966 16.875 2.73389ZM14.7266 12.8333L9.72656 19.5C9.61654 19.6461 9.47893 19.7659 9.32267 19.8516C9.16641 19.9373 8.995 19.9869 8.81958 19.9973C8.79639 19.9987 8.77319 20 8.75 20C8.58583 20.0002 8.42324 19.9658 8.27158 19.8987C8.11991 19.8317 7.98217 19.7333 7.86625 19.6093L5.36625 16.9427C5.13536 16.6919 5.00666 16.354 5.00816 16.0025C5.00965 15.651 5.14121 15.3144 5.37422 15.0658C5.60723 14.8173 5.92283 14.677 6.25234 14.6754C6.58186 14.6738 6.89864 14.8111 7.13375 15.0573L8.64625 16.6707L12.7734 11.1667C12.9809 10.8912 13.2823 10.7147 13.6116 10.676C13.9409 10.6373 14.2711 10.7396 14.5298 10.9603C14.7884 11.1811 14.9544 11.5023 14.9913 11.8534C15.0282 12.2046 14.933 12.557 14.7266 12.8333ZM5 4V2.66667H7.5C7.5 1.95942 7.76339 1.28115 8.23223 0.781048C8.70107 0.280951 9.33696 0 10 0C10.663 0 11.2989 0.280951 11.7678 0.781048C12.2366 1.28115 12.5 1.95942 12.5 2.66667H15V4C15 4.35362 14.8683 4.69276 14.6339 4.94281C14.3995 5.19286 14.0815 5.33333 13.75 5.33333H6.25C5.91848 5.33333 5.60054 5.19286 5.36612 4.94281C5.1317 4.69276 5 4.35362 5 4Z" fill="black"/>
</svg>
