<svg width="25" height="37" viewBox="0 0 25 37" fill="none" xmlns="http://www.w3.org/2000/svg">
<path d="M12.0902 36.5055C9.53464 36.5055 7.42219 34.5366 7.21358 32.0332H16.9664C16.7578 34.5366 14.6455 36.5055 12.0898 36.5055H12.0902Z" fill="#5F33E1"/>
<path d="M19.431 21.2507C18.2575 22.0981 17.4491 23.3498 17.1492 24.758H7.04427C6.74438 23.3629 5.93602 22.1242 4.78863 21.2767C1.65939 19.0211 -0.0879728 15.5139 0.00340094 11.6674C0.159863 5.53913 5.11449 0.415107 11.2945 0.0241608C14.6845 -0.184455 17.931 0.962932 20.4085 3.27072C22.8337 5.5655 24.1766 8.64258 24.1766 11.9675C24.1766 15.6704 22.4425 19.0604 19.4306 21.2509L19.431 21.2507ZM11.582 4.57432C7.80083 4.82205 4.65845 8.05562 4.5675 11.7845C4.55446 12.5016 5.11511 13.1014 5.84527 13.1144H5.87135C6.57542 13.1144 7.16218 12.5538 7.17519 11.8497C7.24039 9.43762 9.28743 7.33861 11.7518 7.18173C12.4689 7.12957 13.0165 6.51675 12.9644 5.79965C12.9253 5.08251 12.2991 4.52217 11.582 4.57432Z" fill="#5F33E1"/>
<path d="M16.9926 27.3656H7.1877V29.4257H16.9926V27.3656Z" fill="#5F33E1"/>
</svg>
