<svg width="20" height="24" viewBox="0 0 20 24" fill="none" xmlns="http://www.w3.org/2000/svg">
<path d="M17.7419 4H17.3945C17.4031 4.0976 17.4194 4.19343 17.4194 4.29268V5.46341C17.4194 7.56135 15.5381 9.26829 13.2258 9.26829H6.77419C4.46195 9.26829 2.58065 7.56135 2.58065 5.46341V4.29268C2.58065 4.19343 2.59694 4.0976 2.60546 4H2.25806C1.01311 4 0 4.91921 0 6.04878V21.8537C0 22.9832 1.01311 23.9024 2.25806 23.9024H17.7419C18.9869 23.9024 20 22.9832 20 21.8537V6.04878C20 4.91921 18.9869 4 17.7419 4ZM10 21.8537C6.62046 21.8537 3.87097 19.359 3.87097 16.2927C3.87097 13.2264 6.62046 10.7317 10 10.7317C13.3795 10.7317 16.129 13.2264 16.129 16.2927C16.129 19.359 13.3795 21.8537 10 21.8537Z" fill="black"/>
<path d="M6.77419 7.60976H13.2258C14.4708 7.60976 15.4839 6.69054 15.4839 5.56098V4.39024C15.4839 3.31898 14.5728 2.43635 13.4167 2.34832C12.9971 0.994665 11.6242 0 10 0C8.37575 0 7.0029 0.994665 6.58329 2.34832C5.42716 2.43635 4.51613 3.31898 4.51613 4.39024V5.56098C4.51613 6.69054 5.52924 7.60976 6.77419 7.60976Z" fill="black"/>
<path d="M13.8858 18.5927L10.7259 12.469C10.4028 11.8437 9.59607 11.8437 9.27372 12.469L6.11382 18.5927C5.79067 19.218 6.19402 20 6.84032 20H13.1601C13.8056 20 14.209 19.218 13.8866 18.5927H13.8858ZM9.57942 14.0065C9.57942 13.7479 9.76734 13.5377 9.99849 13.5377C10.2296 13.5377 10.4176 13.7479 10.4176 14.0065V16.8212C10.4176 17.0798 10.2296 17.29 9.99849 17.29C9.76734 17.29 9.57942 17.0798 9.57942 16.8212V14.0065ZM9.99927 18.9322C9.70993 18.9322 9.47484 18.6692 9.47484 18.3455C9.47484 18.0218 9.70993 17.7588 9.99927 17.7588C10.2886 17.7588 10.5237 18.0218 10.5237 18.3455C10.5237 18.6692 10.2886 18.9322 9.99927 18.9322Z" fill="black"/>
</svg>
