<svg width="20" height="24" viewBox="0 0 20 24" fill="none" xmlns="http://www.w3.org/2000/svg">
<path d="M10 12.5854C7.68776 12.5854 5.80646 14.2923 5.80646 16.3902C5.80646 18.4882 7.68776 20.1951 10 20.1951C12.3123 20.1951 14.1936 18.4882 14.1936 16.3902C14.1936 14.2923 12.3123 12.5854 10 12.5854ZM11.9745 18.1818C11.6013 18.5204 10.98 18.521 10.6061 18.1818L9.31577 17.011C9.13433 16.8464 9.03226 16.6235 9.03226 16.3902V14.9371C9.03226 14.4524 9.46573 14.0591 10 14.0591C10.5343 14.0591 10.9677 14.4524 10.9677 14.9371V16.0267L11.9745 16.9402C12.3526 17.2832 12.3526 17.8388 11.9745 18.1818Z" fill="black"/>
<path d="M17.7419 4.09756H17.3945C17.4031 4.19517 17.4194 4.29099 17.4194 4.39025V5.56098C17.4194 7.65892 15.5381 9.36586 13.2258 9.36586H6.77419C4.46195 9.36586 2.58065 7.65892 2.58065 5.56098V4.39025C2.58065 4.29099 2.59694 4.19517 2.60546 4.09756H2.25806C1.01311 4.09756 0 5.01678 0 6.14635V21.9512C0 23.0808 1.01311 24 2.25806 24H17.7419C18.9869 24 20 23.0808 20 21.9512V6.14635C20 5.01678 18.9869 4.09756 17.7419 4.09756ZM10 21.9512C6.62046 21.9512 3.87097 19.4566 3.87097 16.3902C3.87097 13.3239 6.62046 10.8293 10 10.8293C13.3795 10.8293 16.129 13.3239 16.129 16.3902C16.129 19.4566 13.3795 21.9512 10 21.9512Z" fill="black"/>
<path d="M6.77419 7.60976H13.2258C14.4708 7.60976 15.4839 6.69054 15.4839 5.56098V4.39024C15.4839 3.31898 14.5728 2.43635 13.4167 2.34832C12.9971 0.994665 11.6242 0 10 0C8.37575 0 7.0029 0.994665 6.58329 2.34832C5.42716 2.43635 4.51613 3.31898 4.51613 4.39024V5.56098C4.51613 6.69054 5.52924 7.60976 6.77419 7.60976Z" fill="black"/>
</svg>
