<svg width="20" height="24" viewBox="0 0 20 24" fill="none" xmlns="http://www.w3.org/2000/svg">
<path fill-rule="evenodd" clip-rule="evenodd" d="M5.67213 3.36894C6.13047 1.43796 7.89398 0 10.0001 0C12.1062 0 13.8699 1.43801 14.3281 3.36894C14.5708 3.38838 14.8031 3.41292 15.025 3.44156C16.3583 3.6185 17.4812 3.99488 18.3729 4.87035C19.2647 5.74583 19.6479 6.84839 19.8271 8.15761C20 9.41868 20 11.0223 20 13.0116V14.2614C20 16.2507 20 17.8545 19.8271 19.1155C19.6479 20.4246 19.2646 21.5272 18.3729 22.4027C17.4813 23.2783 16.3584 23.6556 15.025 23.8315C13.7406 24.0003 12.1074 24.0003 10.0812 24.0003H9.91875C7.89271 24.0003 6.25931 24.0003 4.97505 23.8315C3.64172 23.6556 2.51882 23.2782 1.62707 22.4027C0.735313 21.5273 0.352089 20.4247 0.172916 19.1155C9.53669e-08 17.8544 0 16.2508 0 14.2614V13.0116C0 11.0223 9.53669e-08 9.41857 0.172916 8.15761C0.352081 6.84847 0.735419 5.74593 1.62707 4.87035C2.51872 3.99477 3.64164 3.6185 4.97505 3.44156C5.19692 3.41292 5.42941 3.38838 5.67213 3.36894ZM8.07212 3.27792C8.45545 2.62334 9.17523 2.18151 10.0002 2.18151C10.8252 2.18151 11.545 2.62334 11.9284 3.27792C11.3534 3.2728 10.7378 3.2728 10.0815 3.2728H9.91899C9.26275 3.2728 8.64713 3.2728 8.07212 3.27792ZM4.44494 9.81838C4.44494 9.21597 4.94182 8.72708 5.55536 8.72708H14.4449C15.0584 8.72708 15.5553 9.21597 15.5553 9.81838C15.5553 10.4208 15.0584 10.9087 14.4449 10.9087H5.55536C4.94182 10.9087 4.44494 10.4208 4.44494 9.81838ZM4.44494 14.1815C4.44494 13.5791 4.94182 13.0912 5.55536 13.0912H14.4449C15.0584 13.0912 15.5553 13.5791 15.5553 14.1815C15.5553 14.7839 15.0584 15.2728 14.4449 15.2728H5.55536C4.94182 15.2728 4.44494 14.7839 4.44494 14.1815ZM5.55536 17.4543C4.94182 17.4543 4.44494 17.9432 4.44494 18.5456C4.44494 19.1481 4.94182 19.6369 5.55536 19.6369H11.1116C11.7251 19.6369 12.222 19.1481 12.222 18.5456C12.222 17.9432 11.7251 17.4543 11.1116 17.4543H5.55536Z" fill="white"/>
</svg>
